<svg width="296" height="104" viewBox="0 0 296 104" fill="none" xmlns="http://www.w3.org/2000/svg">
<path d="M2.24834 100.598C3.01813 98.3211 5.07196 96.7823 6.99704 95.2072C33.7177 73.3426 63.6709 53.9836 98.0255 38.1023C103.63 35.5117 109.682 33.2047 116.09 31.5756C126.806 28.8506 135.032 33.4171 134.746 42.0573C134.466 50.495 132.842 58.7443 132.051 67.1169C131.664 71.2226 131.073 75.4655 136.873 80.2193C140.9 79.1308 145.256 78.4153 148.826 76.8933C156.64 73.5622 164.46 70.1661 171.56 66.1883C199.065 50.7783 243.785 30.6644 265.625 13.7532C234.545 16.1174 219.274 21.1271 212.834 21.2098C212.006 21.2204 210.755 20.4802 211.568 19.0538C213.118 17.3868 216.158 16.3906 218.92 15.8242C239.629 11.5766 260.438 7.4914 281.267 3.44202C285.649 2.59018 289.525 1.91369 293.613 3.93239C295.15 5.94291 291.296 14.3174 290.613 16.9341C288.802 23.8627 287.519 27.656 285.085 34.4277C284.479 36.1145 284.061 38.2666 282.559 39.4216C280.931 40.6746 281.289 40.7846 279.758 40.2773C277.71 38.2661 278.218 37.7678 278.218 37.7678C277.608 34.2614 278.431 27.8248 278.925 24.3234C279.16 22.9576 279.663 19.3571 280.152 14.8189C271.264 20.7856 261.611 27.7499 254.466 32.5462C230.806 46.4885 207.314 60.572 183.375 74.2821C175.428 78.834 166.521 82.6254 157.659 86.3581C153.631 88.0549 148.85 89.1786 144.055 89.8363C133.142 91.3328 123.558 87.2075 120.831 78.9236C118.65 72.3004 118.622 65.4921 118.555 58.8727C118.502 53.5382 119.817 48.3634 120.814 40.9841C114.052 43.5411 109.528 45.0603 105.301 46.8809C77.7295 58.7547 53.225 73.2638 29.6407 88.5647C23.8261 92.3372 17.9115 96.0434 11.7558 99.5393C9.5927 100.768 6.46139 102.201 3.94056 102.113C3.07605 101.826 2.26085 101.355 2.24834 100.598Z" fill="#882AFF" fill-opacity="0.08"/>
<path d="M1.35453 100.295L1.30224 100.45L1.30494 100.613C1.31746 101.371 1.74245 101.917 2.18912 102.271C2.62647 102.618 3.16449 102.849 3.64302 103.008L3.77189 103.051L3.90762 103.056C5.34179 103.106 6.88612 102.726 8.30663 102.206C9.73883 101.682 11.1112 100.991 12.2218 100.36C18.4001 96.851 24.3319 93.1337 30.1542 89.3562C53.7178 74.0688 78.1722 59.5914 105.674 47.7474C108.419 46.565 111.277 45.516 114.826 44.2131C116.303 43.671 117.9 43.0849 119.658 42.4269C119.395 44.2246 119.12 45.884 118.859 47.4612C118.683 48.5226 118.514 49.5467 118.358 50.5507C117.909 53.4485 117.584 56.1366 117.612 58.8822L118.555 58.8727L117.612 58.8822C117.613 59.0239 117.615 59.1658 117.616 59.3079C117.68 65.7726 117.748 72.5784 119.934 79.2186C122.865 88.1188 133.043 92.2987 144.183 90.7711C149.03 90.1063 153.898 88.9665 158.026 87.2277C166.879 83.4981 175.839 79.6858 183.844 75.1009C201.223 65.1476 218.369 54.996 235.508 44.8485C241.984 41.0145 248.459 37.181 254.945 33.3591L254.969 33.345L254.992 33.3296C258.378 31.0563 262.325 28.2986 266.476 25.3977L267.196 24.8949C271.056 22.198 275.076 19.3935 278.988 16.7422C278.578 20.2982 278.19 23.0319 277.995 24.1632L277.993 24.1774L277.991 24.1916C277.743 25.9474 277.411 28.4556 277.217 30.9713C277.033 33.3556 276.967 35.8262 277.248 37.6801C277.247 37.6843 277.246 37.6884 277.245 37.6926C277.19 37.9703 277.222 38.2676 277.328 38.5748C277.529 39.1601 278.04 39.9122 279.097 40.9504L279.253 41.104L279.461 41.1729L279.524 41.1938C279.856 41.3039 280.166 41.4066 280.428 41.459C280.751 41.5237 281.097 41.5341 281.469 41.387C281.777 41.2652 282.039 41.0551 282.246 40.8869C282.309 40.8357 282.373 40.7825 282.441 40.7264C282.629 40.5706 282.846 40.392 283.135 40.1695C284.077 39.4449 284.636 38.441 285.03 37.4835C285.229 37.0012 285.394 36.5089 285.544 36.0477C285.579 35.9388 285.613 35.8324 285.646 35.7283C285.758 35.3802 285.862 35.0569 285.973 34.7469C288.412 27.9609 289.705 24.1386 291.525 17.1726C291.682 16.5729 292.031 15.6105 292.472 14.4056L292.514 14.2906C292.937 13.1364 293.423 11.8077 293.844 10.494C294.277 9.14291 294.656 7.76493 294.823 6.57543C294.907 5.98063 294.943 5.39865 294.893 4.87202C294.844 4.35477 294.704 3.80632 294.363 3.35935L294.229 3.18409L294.031 3.0864C289.623 0.909679 285.443 1.66902 281.087 2.51584C260.257 6.56537 239.444 10.6513 218.73 14.8999C217.314 15.1903 215.804 15.5952 214.434 16.1523C213.076 16.7044 211.786 17.4342 210.877 18.4113L210.802 18.4916L210.748 18.5869C210.476 19.0636 210.336 19.5577 210.365 20.0496C210.394 20.5484 210.594 20.968 210.874 21.2896C211.4 21.8951 212.204 22.1615 212.847 22.1532C214.547 22.1314 216.783 21.7873 219.599 21.2703C220.857 21.0395 222.244 20.7713 223.765 20.4772L224.352 20.3639C226.107 20.0249 228.037 19.6538 230.159 19.2651C238.04 17.8216 248.57 16.1329 262.451 14.955C251.655 22.8192 236.302 31.3219 220.28 39.6975C214.244 42.8525 208.113 45.9897 202.104 49.0647C190.873 54.8112 180.066 60.3409 171.098 65.3652C164.049 69.3148 156.273 72.6927 148.456 76.0253L148.826 76.8933L148.456 76.0253C146.743 76.7559 144.821 77.3009 142.794 77.803C142.053 77.9867 141.29 78.1663 140.52 78.3476C139.381 78.616 138.226 78.8879 137.104 79.1816C134.596 77.0305 133.509 75.05 133.058 73.2014C132.599 71.3171 132.773 69.493 132.961 67.5198C132.971 67.4155 132.981 67.3108 132.991 67.2056C133.292 64.0195 133.713 60.8563 134.138 57.6728C134.268 56.6952 134.398 55.7155 134.526 54.7328C135.066 50.563 135.547 46.3545 135.689 42.0886L135.689 42.0885C135.843 37.4191 133.675 33.7861 130.005 31.7312C126.376 29.7001 121.378 29.2574 115.858 30.6611C109.382 32.3075 103.275 34.6366 97.6296 37.2459L98.0255 38.1023L97.6296 37.2459C63.1979 53.1628 33.1775 72.5654 6.39955 94.477C6.2632 94.5885 6.12449 94.7012 5.98422 94.8152C5.16002 95.4849 4.28219 96.1981 3.51616 96.9784C2.60957 97.9018 1.80132 98.9741 1.35453 100.295Z" stroke="#882AFF" stroke-opacity="0.08" stroke-width="1.88705"/>
</svg>
