<svg xmlns="http://www.w3.org/2000/svg" width="400" height="400" viewBox="0 0 400 400" version="1.1"><path d="M 180 76.068 C 160.482 78.992, 136.066 90.079, 121.022 102.850 C 113.503 109.233, 106 116.968, 106 118.338 C 106 118.962, 145.034 158.517, 192.742 206.236 C 253.704 267.213, 280.120 293, 281.625 293 C 282.941 293, 286.151 290.543, 289.963 286.617 C 336.800 238.374, 336.478 160.709, 289.242 112.618 C 269.781 92.805, 244.361 79.660, 218.566 76.072 C 209.760 74.848, 188.161 74.845, 180 76.068 M 93.217 135.673 C 91.633 136.310, 86 147.281, 86 149.730 C 86 152.156, 247.947 314, 250.374 314 C 251.390 314, 254.893 312.575, 258.160 310.834 C 263.098 308.202, 264.050 307.275, 263.800 305.339 C 263.601 303.790, 235.403 274.897, 179.544 219.005 C 133.368 172.802, 95.343 135.036, 95.044 135.079 C 94.745 135.122, 93.923 135.390, 93.217 135.673 M 78.143 174.328 C 77.185 175.481, 75.077 186.727, 75.020 190.982 C 75 192.470, 203.943 322.265, 207.279 324.115 C 208.465 324.773, 211.702 324.714, 216.998 323.940 C 224.548 322.836, 227.608 321.314, 226.845 319.041 C 226.243 317.250, 81.583 173, 80.388 173 C 79.759 173, 78.749 173.598, 78.143 174.328 M 79.033 227.938 C 77.768 230.302, 82.322 244.700, 87.750 255.500 C 102.668 285.182, 128.460 307.910, 159 318.286 C 169.509 321.857, 172.380 322.059, 173.439 319.300 C 173.935 318.007, 163.109 306.615, 128.300 271.800 C 103.114 246.610, 81.960 226, 81.289 226 C 80.619 226, 79.604 226.872, 79.033 227.938" stroke="none" fill="#ebebeb" fill-rule="evenodd"/><path d="M -0 200.002 L -0 400.005 200.250 399.752 L 400.500 399.500 400.752 199.750 L 401.005 0 200.502 0 L 0 0 -0 200.002 M 0.490 200.500 C 0.490 310.500, 0.607 355.352, 0.750 300.170 C 0.893 244.989, 0.893 154.989, 0.750 100.170 C 0.607 45.352, 0.490 90.500, 0.490 200.500 M 180 76.068 C 160.482 78.992, 136.066 90.079, 121.022 102.850 C 113.503 109.233, 106 116.968, 106 118.338 C 106 118.962, 145.034 158.517, 192.742 206.236 C 253.704 267.213, 280.120 293, 281.625 293 C 282.941 293, 286.151 290.543, 289.963 286.617 C 336.800 238.374, 336.478 160.709, 289.242 112.618 C 269.781 92.805, 244.361 79.660, 218.566 76.072 C 209.760 74.848, 188.161 74.845, 180 76.068 M 93.217 135.673 C 91.633 136.310, 86 147.281, 86 149.730 C 86 152.156, 247.947 314, 250.374 314 C 251.390 314, 254.893 312.575, 258.160 310.834 C 263.098 308.202, 264.050 307.275, 263.800 305.339 C 263.601 303.790, 235.403 274.897, 179.544 219.005 C 133.368 172.802, 95.343 135.036, 95.044 135.079 C 94.745 135.122, 93.923 135.390, 93.217 135.673 M 78.143 174.328 C 77.185 175.481, 75.077 186.727, 75.020 190.982 C 75 192.470, 203.943 322.265, 207.279 324.115 C 208.465 324.773, 211.702 324.714, 216.998 323.940 C 224.548 322.836, 227.608 321.314, 226.845 319.041 C 226.243 317.250, 81.583 173, 80.388 173 C 79.759 173, 78.749 173.598, 78.143 174.328 M 79.033 227.938 C 77.768 230.302, 82.322 244.700, 87.750 255.500 C 102.668 285.182, 128.460 307.910, 159 318.286 C 169.509 321.857, 172.380 322.059, 173.439 319.300 C 173.935 318.007, 163.109 306.615, 128.300 271.800 C 103.114 246.610, 81.960 226, 81.289 226 C 80.619 226, 79.604 226.872, 79.033 227.938" stroke="none" fill="#1f2023" fill-rule="evenodd"/></svg>