<svg width="109" height="32" viewBox="0 0 109 32" fill="none" xmlns="http://www.w3.org/2000/svg">
<mask id="mask0_345_645" style="mask-type:alpha" maskUnits="userSpaceOnUse" x="3" y="3" width="26" height="26">
<path d="M16.9668 15.9263V4L28.893 4.02982V15.9263H16.9668Z" fill="#9747FF" stroke="#9747FF" stroke-width="0.0628247"/>
<path d="M23.7067 22.2667L28.8936 16.9723L16.9673 17.0022V28.8987L23.7067 22.2667Z" fill="#9747FF" stroke="#9747FF" stroke-width="0.0628247"/>
<path d="M9.18688 10.632L4 15.9263L15.9262 15.8965V4L9.18688 10.632Z" fill="#9747FF" stroke="#9747FF" stroke-width="0.0628247"/>
</mask>
<g mask="url(#mask0_345_645)">
<rect x="-10.8652" y="25.2448" width="45.0762" height="22.6779" transform="rotate(-41.005 -10.8652 25.2448)" fill="url(#paint0_linear_345_645)"/>
</g>
<path d="M43.074 22.626C41.898 22.626 40.818 22.35 39.834 21.798C38.85 21.246 38.07 20.484 37.494 19.512C36.918 18.528 36.63 17.418 36.63 16.182C36.63 14.958 36.918 13.86 37.494 12.888C38.07 11.904 38.85 11.136 39.834 10.584C40.818 10.032 41.898 9.756 43.074 9.756C44.262 9.756 45.342 10.032 46.314 10.584C47.298 11.136 48.072 11.904 48.636 12.888C49.212 13.86 49.5 14.958 49.5 16.182C49.5 17.418 49.212 18.528 48.636 19.512C48.072 20.484 47.298 21.246 46.314 21.798C45.33 22.35 44.25 22.626 43.074 22.626ZM43.074 20.376C43.83 20.376 44.496 20.208 45.072 19.872C45.648 19.524 46.098 19.032 46.422 18.396C46.746 17.76 46.908 17.022 46.908 16.182C46.908 15.342 46.746 14.61 46.422 13.986C46.098 13.35 45.648 12.864 45.072 12.528C44.496 12.192 43.83 12.024 43.074 12.024C42.318 12.024 41.646 12.192 41.058 12.528C40.482 12.864 40.032 13.35 39.708 13.986C39.384 14.61 39.222 15.342 39.222 16.182C39.222 17.022 39.384 17.76 39.708 18.396C40.032 19.032 40.482 19.524 41.058 19.872C41.646 20.208 42.318 20.376 43.074 20.376ZM60.4288 12.528V22.5H57.8908V21.24C57.5668 21.672 57.1408 22.014 56.6128 22.266C56.0968 22.506 55.5328 22.626 54.9208 22.626C54.1408 22.626 53.4508 22.464 52.8508 22.14C52.2508 21.804 51.7768 21.318 51.4288 20.682C51.0928 20.034 50.9248 19.266 50.9248 18.378V12.528H53.4448V18.018C53.4448 18.81 53.6428 19.422 54.0388 19.854C54.4348 20.274 54.9748 20.484 55.6588 20.484C56.3548 20.484 56.9008 20.274 57.2968 19.854C57.6928 19.422 57.8908 18.81 57.8908 18.018V12.528H60.4288ZM65.4892 14.598V19.422C65.4892 19.758 65.5672 20.004 65.7232 20.16C65.8912 20.304 66.1672 20.376 66.5512 20.376H67.7212V22.5H66.1372C64.0132 22.5 62.9512 21.468 62.9512 19.404V14.598H61.7632V12.528H62.9512V10.062H65.4892V12.528H67.7212V14.598H65.4892ZM71.6937 14.076C72.0177 13.548 72.4377 13.134 72.9537 12.834C73.4817 12.534 74.0817 12.384 74.7537 12.384V15.03H74.0877C73.2957 15.03 72.6957 15.216 72.2877 15.588C71.8917 15.96 71.6937 16.608 71.6937 17.532V22.5H69.1737V12.528H71.6937V14.076ZM75.4431 17.478C75.4431 16.47 75.6411 15.576 76.0371 14.796C76.4451 14.016 76.9911 13.416 77.6751 12.996C78.3711 12.576 79.1451 12.366 79.9971 12.366C80.7411 12.366 81.3891 12.516 81.9411 12.816C82.5051 13.116 82.9551 13.494 83.2911 13.95V12.528H85.8291V22.5H83.2911V21.042C82.9671 21.51 82.5171 21.9 81.9411 22.212C81.3771 22.512 80.7231 22.662 79.9791 22.662C79.1391 22.662 78.3711 22.446 77.6751 22.014C76.9911 21.582 76.4451 20.976 76.0371 20.196C75.6411 19.404 75.4431 18.498 75.4431 17.478ZM83.2911 17.514C83.2911 16.902 83.1711 16.38 82.9311 15.948C82.6911 15.504 82.3671 15.168 81.9591 14.94C81.5511 14.7 81.1131 14.58 80.6451 14.58C80.1771 14.58 79.7451 14.694 79.3491 14.922C78.9531 15.15 78.6291 15.486 78.3771 15.93C78.1371 16.362 78.0171 16.878 78.0171 17.478C78.0171 18.078 78.1371 18.606 78.3771 19.062C78.6291 19.506 78.9531 19.848 79.3491 20.088C79.7571 20.328 80.1891 20.448 80.6451 20.448C81.1131 20.448 81.5511 20.334 81.9591 20.106C82.3671 19.866 82.6911 19.53 82.9311 19.098C83.1711 18.654 83.2911 18.126 83.2911 17.514ZM93.4563 12.384C94.6443 12.384 95.6043 12.762 96.3363 13.518C97.0683 14.262 97.4343 15.306 97.4343 16.65V22.5H94.9143V16.992C94.9143 16.2 94.7163 15.594 94.3203 15.174C93.9243 14.742 93.3843 14.526 92.7003 14.526C92.0043 14.526 91.4523 14.742 91.0443 15.174C90.6483 15.594 90.4503 16.2 90.4503 16.992V22.5H87.9303V12.528H90.4503V13.77C90.7863 13.338 91.2123 13.002 91.7283 12.762C92.2563 12.51 92.8323 12.384 93.4563 12.384ZM105.375 22.5L101.991 18.252V22.5H99.4707V9.18H101.991V16.758L105.339 12.528H108.615L104.223 17.532L108.651 22.5H105.375Z" fill="#050508"/>
<defs>
<linearGradient id="paint0_linear_345_645" x1="-16.5441" y1="36.5837" x2="38.6476" y2="36.5837" gradientUnits="userSpaceOnUse">
<stop stop-color="#882AFF" stop-opacity="0.02"/>
<stop offset="1" stop-color="#882AFF"/>
</linearGradient>
</defs>
</svg>
