<svg xmlns="http://www.w3.org/2000/svg" width="210px" height="209px" viewBox="0 0 210 209" version="1.1" transform="rotate(0) scale(1, 1)"><path d="M 82.500 53.300 C 61.506 65.305, 55 69.274, 55 70.078 C 55 71.498, 80.198 94, 81.789 94 C 83.296 94, 93.794 86.642, 95.247 84.567 C 96.384 82.943, 95.678 47.723, 94.500 47.337 C 93.950 47.157, 88.550 49.840, 82.500 53.300 M 103.698 47.636 C 103.314 48.019, 103 56.471, 103 66.418 L 103 84.503 109.739 89.668 C 113.472 92.529, 117.007 94.535, 117.666 94.166 C 119.868 92.932, 144 70.955, 144 70.183 C 144 69.446, 138.987 66.379, 117.334 53.873 C 105.711 47.160, 104.656 46.678, 103.698 47.636 M 53 83.995 C 53 88.649, 56.033 116.243, 56.808 118.641 C 57.929 122.109, 92.862 157.267, 94.545 156.621 C 95.747 156.160, 96 152.782, 96 137.159 L 96 118.254 88.715 111.377 C 74.279 97.750, 55.199 81, 54.111 81 C 53.500 81, 53 82.348, 53 83.995 M 136.153 87.279 C 132.494 90.733, 127.250 95.534, 124.500 97.948 C 121.750 100.363, 115.787 105.881, 111.250 110.211 L 103 118.085 103 136.983 C 103 149.813, 103.358 156.103, 104.116 156.572 C 104.770 156.976, 112.887 149.607, 123.740 138.753 L 142.249 120.244 144.209 102.064 C 145.287 92.065, 145.920 83.235, 145.616 82.442 C 144.664 79.962, 143.010 80.807, 136.153 87.279" stroke="none" fill="#b576fd " fill-rule="evenodd"/></svg>