<svg width="351" height="107" viewBox="0 0 351 107" fill="none" xmlns="http://www.w3.org/2000/svg">
    <g clip-path="url(#clip0_174_2074)">
        <path d="M160.6 59.6H115.6C117.4 65.9 122.8 69.6 130.8 69.6C136.9 69.6 140.9 67.9 145.1 64.2L156.5 76.1C150.6 82.7 141.9 86.2 130.1 86.2C108.1 86.2 93.7998 72.6 93.7998 54C93.7998 35.4 108.3 22 127.8 22C146.1 22 160.9 33.7 160.9 54.2C160.9 55.8 160.7 57.9 160.6 59.6ZM115.3 48.1H140.7C139.6 41.6 134.8 37.4 128 37.4C121.3 37.5 116.6 41.6 115.3 48.1Z" fill="#00B579"/>
        <path d="M210.2 22V41.6C208.3 41.4 206.9 41.3 205.3 41.3C196.5 41.3 190.5 45.8 190.5 56.6V85.1H168.8V23H189.5V30.4C193.9 24.9 201.1 22 210.2 22Z" fill="#00B579"/>
        <path d="M244.2 63.3L237.8 69.8V85H216.1V0H237.8V44.6L260 23H285.7L260 49.6L287.9 85.1H261.5L244.2 63.3Z" fill="#00B579"/>
        <path d="M280.4 54C280.4 35.3 295.1 22 315.4 22C335.7 22 350.4 35.3 350.4 54C350.4 72.7 335.9 86.2 315.4 86.2C295.1 86.1 280.4 72.7 280.4 54ZM328.3 54C328.3 44.6 322.7 39.3 315.3 39.3C307.9 39.3 302.3 44.6 302.3 54C302.3 63.4 308 68.9 315.3 68.9C322.7 68.8 328.3 63.5 328.3 54Z" fill="#00B579"/>
        <path d="M90.6 103.5L82.5 96.6C82.3 96.4 82.2 96.1 82.3 95.8L86.5 86.3C86.7 85.8 86.3 85.3 85.8 85.4C76.1 87.4 68.4 86.3 62.5 83.4C55.3 79.9 50.5 73.9 47.2 67.7C43.2 60.2 41.4 52.5 40.4 48.9C40.2 48.3 39.3 48.2 39.1 48.8C36.8 54 35.8 59.5 35.8 65.3V66.1C33.6 65.2 31.7 63.9 30 62.4C25.6 58.4 22.9 52.4 22.9 44.9C22.9 31 32.4 22 44.5 22C56.6 22 66.1 31 66.1 44.9C66.1 54.7 61.4 62 54.4 65.5C53.8 65.8 53.6 66.5 53.9 67.1C54.7 68.4 55.6 69.7 56.6 70.9C60.3 75.4 64.7 78.3 70 79.6C81.7 72.3 88.9 59.8 88.9 44.9C88.9 20.9 70.1 3.20001 44.5 3.20001C18.9 3.20001 0 20.8 0 44.9C0 65.7 14.1 81.7 34.4 85.6C36.6 86 38.9 86.3 41.3 86.5C41.6 86.5 41.9 86.7 42.1 86.9C44.9 91.2 48.5 95 52.9 98C63.7 105.8 77.9 107.8 90.6 104.6C90.7 104.6 90.9 103.9 90.6 103.5Z" fill="#00B579"/>
        <path d="M345.75 31.29C345.11 31.29 344.51 31.17 343.94 30.93C343.37 30.69 342.88 30.36 342.46 29.93C342.04 29.5 341.7 29.01 341.46 28.45C341.22 27.89 341.1 27.29 341.1 26.64C341.1 25.99 341.22 25.4 341.46 24.83C341.7 24.26 342.03 23.77 342.46 23.35C342.89 22.93 343.38 22.59 343.94 22.35C344.5 22.11 345.1 21.99 345.75 21.99C346.4 21.99 347 22.11 347.56 22.35C348.12 22.59 348.62 22.92 349.04 23.35C349.46 23.78 349.8 24.27 350.04 24.83C350.28 25.39 350.4 25.99 350.4 26.64C350.4 27.29 350.28 27.89 350.04 28.45C349.8 29.01 349.47 29.51 349.04 29.93C348.61 30.35 348.12 30.69 347.56 30.93C347 31.17 346.4 31.29 345.75 31.29ZM345.75 30.17C346.4 30.17 346.99 30.01 347.53 29.69C348.06 29.37 348.49 28.95 348.81 28.41C349.13 27.88 349.29 27.28 349.29 26.63C349.29 25.98 349.13 25.39 348.81 24.85C348.49 24.32 348.07 23.89 347.53 23.57C346.99 23.25 346.4 23.09 345.75 23.09C345.1 23.09 344.51 23.25 343.97 23.57C343.44 23.89 343.01 24.31 342.69 24.85C342.37 25.38 342.21 25.98 342.21 26.63C342.21 27.28 342.37 27.87 342.69 28.41C343.01 28.94 343.43 29.37 343.97 29.69C344.51 30.01 345.1 30.17 345.75 30.17ZM344.12 28.73V24.44H346.29C346.46 24.44 346.65 24.49 346.86 24.59C347.07 24.69 347.24 24.84 347.39 25.04C347.54 25.24 347.61 25.5 347.61 25.81C347.61 26.12 347.53 26.39 347.38 26.61C347.23 26.83 347.05 26.99 346.83 27.11C346.62 27.22 346.41 27.28 346.22 27.28H344.65V26.58H345.93C346.06 26.58 346.2 26.52 346.35 26.39C346.5 26.26 346.57 26.07 346.57 25.81C346.57 25.55 346.5 25.37 346.35 25.28C346.2 25.19 346.07 25.14 345.96 25.14H345.07V28.73H344.13H344.12ZM346.71 26.71L347.78 28.73H346.75L345.7 26.71H346.71Z" fill="#00B579"/>
    </g>
    <defs>
        <clipPath id="clip0_174_2074">
            <rect width="350.4" height="106.06" fill="white"/>
        </clipPath>
    </defs>
</svg>
