<?xml version="1.0" encoding="UTF-8"?> <svg xmlns="http://www.w3.org/2000/svg" width="169" height="59" viewBox="0 0 169 59" fill="none"><path fill-rule="evenodd" clip-rule="evenodd" d="M58.251 8.18118C59.1624 8.31529 59.92 8.78471 60.5349 9.58941L60.5239 9.60059C61.1388 10.4053 61.4463 11.3441 61.4463 12.4171C61.4463 13.2776 61.2706 14.06 60.8973 14.7753C60.5239 15.4794 59.9639 16.0494 59.2173 16.4741C58.4706 16.8988 57.5592 17.1112 56.5051 17.1112H46.6777V0H56.2086C57.2737 0 58.1741 0.201176 58.9098 0.603529C59.6565 1.01706 60.2055 1.54235 60.5788 2.20176C60.9412 2.86118 61.1279 3.55412 61.1279 4.30294C61.1279 5.32 60.8533 6.16941 60.3043 6.86235C59.7553 7.55529 59.0745 7.99118 58.251 8.18118ZM55.2314 3.50941H51.0259V6.54941H55.2314C55.6706 6.54941 56.033 6.40412 56.3075 6.12471C56.582 5.84529 56.7247 5.45412 56.7247 5.01824C56.7247 4.58235 56.582 4.21353 56.3075 3.93412C56.022 3.65471 55.6706 3.50941 55.2314 3.50941ZM55.3851 13.5906C55.9012 13.5906 56.3075 13.4341 56.6039 13.11C56.9004 12.7859 57.0432 12.35 57.0432 11.8359C57.0432 11.3218 56.9004 10.9082 56.6039 10.5729C56.3184 10.2488 55.9012 10.0812 55.3851 10.0812H51.0259V13.5906H55.3851ZM74.2275 0H68.7812L62.4565 17.1112H67.3757L68.2102 14.6524H74.8424L75.6769 17.1112H80.5961L74.2494 0H74.2275ZM69.2533 11.1318L71.5043 4.69412L73.6455 11.1318H69.2533ZM86.5694 7.20882L93.6847 17.1112H97.8683V0H93.509V9.41059L86.7012 0H82.2432V17.1112H86.5694V7.20882ZM128.58 0H123.134L116.835 17.0428L110.013 8.00235L116.535 0H111.198L106.027 7.03V0H101.689V17.1112H106.027V12.1041L107.158 10.6735L111.572 17.1112H116.809H116.886H121.729L122.563 14.6524H129.195L130.03 17.1112H134.949L128.602 0H128.58ZM123.606 11.1318L125.857 4.69412L127.998 11.1318H123.606ZM52.3215 24.8564C53.0243 24.387 53.8368 24.1523 54.7372 24.1523C55.5278 24.1523 56.2525 24.387 56.9113 24.8676C57.5701 25.3482 58.0533 25.9405 58.3388 26.6335L62.0721 24.8341C61.4133 23.6046 60.4909 22.5876 59.305 21.8052C58.1082 21.0229 56.5929 20.6205 54.7482 20.6205C53.0352 20.6205 51.487 20.9894 50.1035 21.7382C48.7199 22.487 47.6329 23.5264 46.8423 24.8676C46.0517 26.2088 45.6564 27.7399 45.6564 29.4723C45.6564 31.2047 46.0517 32.7358 46.8423 34.077C47.6329 35.4182 48.7199 36.4576 50.1035 37.2064C51.487 37.9552 53.0352 38.3241 54.7482 38.3241C56.5929 38.3241 58.1192 37.9217 59.316 37.1282C60.5129 36.3347 61.4352 35.3288 62.0721 34.1105L58.3388 32.3111C58.0533 33.0152 57.5811 33.6076 56.9113 34.077C56.2525 34.5576 55.5168 34.7923 54.7372 34.7923C53.8258 34.7923 53.0243 34.5576 52.3215 34.0882C51.6188 33.6188 51.0588 32.9817 50.6635 32.1658C50.2572 31.3499 50.0596 30.4558 50.0596 29.4611C50.0596 28.4664 50.2572 27.5611 50.6635 26.7564C51.0697 25.9405 51.6188 25.3035 52.3215 24.8341V24.8564ZM75.2757 31.7393C76.1849 31.4148 76.9628 30.8231 77.6204 29.9641C78.2792 29.1035 78.6196 27.9858 78.6196 26.6111C78.6196 25.5382 78.389 24.5658 77.9278 23.7052C77.4666 22.8447 76.7968 22.1629 75.9074 21.66C75.029 21.1682 73.9749 20.9111 72.767 20.9111H64.3561V38.0111H68.6933V32.2664H70.9114L73.7333 38.0111H78.6964L75.2757 31.7393ZM72.1302 28.757C72.7121 28.757 73.2063 28.567 73.6125 28.187C74.0188 27.7958 74.2164 27.2482 74.2164 26.5776C74.2164 25.907 74.0188 25.3817 73.6125 25.0017C73.2063 24.6105 72.7121 24.4205 72.1302 24.4205H68.7043V28.757H72.1302ZM146.918 20.9223H141.471L135.147 38.0223H140.066L140.9 35.5635H147.533L148.367 38.0223H153.275L146.929 20.9223H146.918ZM141.943 32.0541L144.194 25.6164L146.336 32.0541H141.943ZM122.278 20.9223H136.003V24.4317H131.314V38.0223H126.988V24.4317H122.278V20.9223ZM167.078 29.6623C166.419 28.9247 165.639 28.3994 164.75 28.0641C163.86 27.7288 162.773 27.427 161.478 27.1588C160.435 26.8794 159.699 26.6335 159.249 26.4211C158.798 26.2088 158.579 25.907 158.579 25.5158C158.579 25.1023 158.733 24.767 159.029 24.5211C159.337 24.2753 159.787 24.1523 160.391 24.1523C161.247 24.1523 162.104 24.2976 162.971 24.5994C163.838 24.9011 164.618 25.337 165.299 25.9182L167.671 22.8558C166.781 22.1182 165.76 21.5705 164.596 21.1905C163.432 20.8217 162.18 20.6317 160.841 20.6317C159.501 20.6317 158.271 20.8776 157.25 21.3805C156.229 21.8723 155.46 22.5429 154.933 23.37C154.406 24.197 154.143 25.1023 154.143 26.0858C154.143 27.3935 154.472 28.4105 155.142 29.1594C155.801 29.9082 156.58 30.4335 157.47 30.7576C158.359 31.0817 159.468 31.3723 160.797 31.6405C161.807 31.8641 162.532 32.0876 162.993 32.3C163.443 32.5123 163.674 32.8476 163.674 33.2947C163.674 33.7417 163.465 34.1105 163.037 34.4011C162.609 34.6917 162.027 34.837 161.28 34.837C160.204 34.837 159.205 34.6247 158.282 34.2111C157.36 33.7864 156.569 33.25 155.911 32.5794L153.616 35.8205C155.482 37.5082 157.964 38.3576 161.071 38.3576C163.289 38.3576 165.013 37.8435 166.232 36.8041C167.462 35.7758 168.077 34.3788 168.077 32.6353C168.077 31.4058 167.747 30.4223 167.078 29.6847V29.6623ZM93.7616 38.0223H81.4416V20.9223H93.7616V24.4317H85.7789V27.427H93.5859V30.9476H85.7789V34.5129H93.7616V38.0223ZM111.693 24.9123C110.913 23.627 109.848 22.6435 108.464 21.9505C107.081 21.2576 105.511 20.9111 103.754 20.9111H96.6934V38.0111H103.776C105.522 38.0111 107.081 37.6647 108.464 36.9717C109.837 36.2788 110.913 35.2841 111.693 33.9988C112.461 32.7135 112.857 31.1935 112.857 29.45C112.857 27.7064 112.472 26.1864 111.693 24.9123ZM107.86 31.9758C107.487 32.747 106.949 33.3617 106.246 33.82C105.544 34.2782 104.709 34.5129 103.754 34.5129H101.031V24.4317H103.776C105.258 24.4317 106.4 24.9011 107.202 25.8288C108.014 26.7676 108.409 27.9747 108.409 29.45C108.409 30.3664 108.223 31.2047 107.86 31.9758ZM115.448 20.9223H119.785V38.0223H115.448V20.9223Z" fill="#01579B"></path><path d="M37.3553 27.8518C37.3553 30.6571 36.2353 33.1941 34.4345 35.0382C32.6337 36.8824 30.1412 38.0224 27.3851 38.0224H0V0H27.3741C30.1302 0 32.6227 1.14 34.4235 2.97294C36.2353 4.80588 37.3443 7.34294 37.3443 10.1482C37.3443 13.9482 35.291 17.2565 32.2714 19C35.302 20.7435 37.3443 24.0518 37.3443 27.8518H37.3553Z" fill="#01579B"></path><path d="M25.5843 26.0411L28.2416 28.7458C25.793 31.2382 22.411 32.7694 18.6777 32.7694C11.211 32.7694 5.1608 26.6111 5.1608 19.0111C5.1608 11.4111 11.211 5.25288 18.6777 5.25288C22.411 5.25288 25.793 6.79524 28.2416 9.28759L22.9381 14.6858C21.851 13.5794 20.3357 12.8864 18.6886 12.8864C15.3726 12.8864 12.6714 15.6358 12.6714 19.0111C12.6714 22.3864 15.3726 25.1358 18.6886 25.1358C20.3467 25.1358 21.851 24.4429 22.9381 23.3364L25.5843 26.0411Z" fill="url(#paint0_linear_1_2483)"></path><path d="M22.927 23.3365L25.5733 26.0412C23.8055 27.8406 21.3678 28.9582 18.6666 28.9582C13.2643 28.9582 8.89409 24.4988 8.89409 19.0112C8.89409 13.5235 13.2753 9.07529 18.6666 9.07529C21.3678 9.07529 23.8055 10.1929 25.5733 11.9923L22.927 14.6971C21.84 13.5906 20.3247 12.8976 18.6776 12.8976C15.3615 12.8976 12.6604 15.6471 12.6604 19.0223C12.6604 22.3976 15.3615 25.1471 18.6776 25.1471C20.3357 25.1471 21.84 24.4541 22.927 23.3476V23.3365Z" fill="url(#paint1_linear_1_2483)"></path><path d="M134.242 55.1255L132.125 58.0149H130.87L133.57 54.3959L131.016 50.9666H132.286L134.242 53.6517L136.197 50.9666H137.467L134.913 54.3959L137.628 58.0149H136.358L134.242 55.1255Z" fill="#01579B"></path><path d="M128.503 56.9642C128.23 57.3339 127.885 57.6306 127.467 57.8544C127.048 58.0781 126.601 58.19 126.124 58.19C125.511 58.19 124.966 58.0441 124.489 57.7522C124.022 57.4506 123.652 57.0226 123.38 56.4681C123.117 55.9038 122.986 55.2471 122.986 54.498C122.986 53.7587 123.117 53.1117 123.38 52.5572C123.643 51.993 124.012 51.5601 124.489 51.2585C124.966 50.9472 125.511 50.7915 126.124 50.7915C126.591 50.7915 127.029 50.9034 127.437 51.1271C127.856 51.3412 128.211 51.6427 128.503 52.0319V50.9666H129.597V58.0149H128.503V56.9642ZM128.503 52.9074C128.298 52.5864 127.997 52.3189 127.598 52.1048C127.209 51.8811 126.805 51.7692 126.386 51.7692C125.696 51.7692 125.146 52.027 124.737 52.5426C124.329 53.0485 124.124 53.7003 124.124 54.498C124.124 55.2958 124.329 55.9476 124.737 56.4535C125.146 56.9594 125.696 57.2123 126.386 57.2123C126.815 57.2123 127.223 57.1053 127.613 56.8913C128.002 56.6772 128.298 56.4146 128.503 56.1032V52.9074Z" fill="#01579B"></path><path d="M119.956 49.9159L116.643 58.0149H116.147L112.848 49.9159V58.0149H111.637V48.2816H113.373L116.395 55.6947L119.43 48.2816H121.167V58.0149H119.956V49.9159Z" fill="#01579B"></path><path d="M104.543 56.9642C104.271 57.3339 103.925 57.6306 103.507 57.8544C103.089 58.0781 102.641 58.19 102.164 58.19C101.551 58.19 101.006 58.0441 100.53 57.7522C100.062 57.4506 99.6927 57.0226 99.4203 56.4681C99.1576 55.9038 99.0262 55.2471 99.0262 54.498C99.0262 53.7587 99.1576 53.1117 99.4203 52.5572C99.683 51.993 100.053 51.5601 100.53 51.2585C101.006 50.9472 101.551 50.7915 102.164 50.7915C102.631 50.7915 103.069 50.9034 103.478 51.1271C103.896 51.3412 104.251 51.6427 104.543 52.0319V50.9666H105.638V58.0149H104.543V56.9642ZM104.543 52.9074C104.339 52.5864 104.037 52.3189 103.638 52.1048C103.249 51.8811 102.845 51.7692 102.427 51.7692C101.736 51.7692 101.186 52.027 100.778 52.5426C100.369 53.0485 100.165 53.7003 100.165 54.498C100.165 55.2958 100.369 55.9476 100.778 56.4535C101.186 56.9594 101.736 57.2123 102.427 57.2123C102.855 57.2123 103.264 57.1053 103.653 56.8913C104.042 56.6772 104.339 56.4146 104.543 56.1032V52.9074Z" fill="#01579B"></path><path d="M96.1481 56.9642C95.8756 57.3339 95.5302 57.6306 95.1118 57.8544C94.6934 58.0781 94.2458 58.19 93.7691 58.19C93.1561 58.19 92.6112 58.0441 92.1344 57.7522C91.6673 57.4506 91.2976 57.0226 91.0251 56.4681C90.7624 55.9038 90.6311 55.2471 90.6311 54.4981C90.6311 53.7587 90.7624 53.1117 91.0251 52.5572C91.2879 51.993 91.6576 51.5601 92.1344 51.2585C92.6112 50.9472 93.1561 50.7915 93.7691 50.7915C94.2361 50.7915 94.674 50.9034 95.0826 51.1271C95.501 51.3412 95.8562 51.6427 96.1481 52.0319V48.2816H97.2427V58.0149H96.1481V56.9642ZM96.1481 52.9074C95.9438 52.5864 95.6421 52.3189 95.2432 52.1048C94.854 51.8811 94.4502 51.7692 94.0318 51.7692C93.3409 51.7692 92.7912 52.027 92.3825 52.5426C91.9738 53.0485 91.7695 53.7003 91.7695 54.4981C91.7695 55.2958 91.9738 55.9476 92.3825 56.4535C92.7912 56.9594 93.3409 57.2123 94.0318 57.2123C94.4599 57.2123 94.8686 57.1053 95.2578 56.8913C95.647 56.6772 95.9438 56.4146 96.1481 56.1032V52.9074Z" fill="#01579B"></path><path d="M87.753 56.9642C87.4805 57.3339 87.1351 57.6306 86.7167 57.8544C86.2983 58.0781 85.8507 58.19 85.3739 58.19C84.7609 58.19 84.216 58.0441 83.7393 57.7522C83.2722 57.4506 82.9025 57.0226 82.63 56.4681C82.3673 55.9038 82.236 55.2471 82.236 54.498C82.236 53.7587 82.3673 53.1117 82.63 52.5572C82.8927 51.993 83.2625 51.5601 83.7393 51.2585C84.216 50.9472 84.7609 50.7915 85.3739 50.7915C85.841 50.7915 86.2788 50.9034 86.6875 51.1271C87.1059 51.3412 87.4611 51.6427 87.753 52.0319V50.9666H88.8476V58.0149H87.753V56.9642ZM87.753 52.9074C87.5486 52.5864 87.247 52.3189 86.8481 52.1048C86.4588 51.8811 86.0551 51.7692 85.6367 51.7692C84.9458 51.7692 84.3961 52.027 83.9874 52.5426C83.5787 53.0485 83.3744 53.7003 83.3744 54.498C83.3744 55.2958 83.5787 55.9476 83.9874 56.4535C84.3961 56.9594 84.9458 57.2123 85.6367 57.2123C86.0648 57.2123 86.4734 57.1053 86.8626 56.8913C87.2519 56.6772 87.5486 56.4146 87.753 56.1032V52.9074Z" fill="#01579B"></path><path d="M77.827 50.9666H78.9217V52.1048C79.2233 51.7157 79.5736 51.4044 79.9725 51.1709C80.3812 50.9374 80.8142 50.8207 81.2715 50.8207V51.9443C81.1353 51.9151 80.9894 51.9006 80.8337 51.9006C80.5028 51.9006 80.1428 52.0173 79.7536 52.2508C79.3644 52.4843 79.0871 52.7421 78.9217 53.0242V58.0149H77.827V50.9666ZM77.5643 47.8H78.3087L79.5201 49.3468L80.6877 47.8H81.4321L80.0455 49.9014H78.9947L77.5643 47.8Z" fill="#01579B"></path><path d="M70.7774 56.9642C70.505 57.3339 70.1596 57.6306 69.7412 57.8544C69.3228 58.0781 68.8752 58.19 68.3984 58.19C67.7854 58.19 67.2405 58.0441 66.7637 57.7522C66.2967 57.4506 65.9269 57.0226 65.6545 56.4681C65.3918 55.9038 65.2604 55.2471 65.2604 54.4981C65.2604 53.7587 65.3918 53.1117 65.6545 52.5572C65.9172 51.993 66.2869 51.5601 66.7637 51.2585C67.2405 50.9472 67.7854 50.7915 68.3984 50.7915C68.8654 50.7915 69.3033 50.9034 69.712 51.1271C70.1304 51.3412 70.4855 51.6427 70.7774 52.0319V50.9666H71.8721V58.0149H70.7774V56.9642ZM70.7774 52.9074C70.5731 52.5864 70.2715 52.3189 69.8725 52.1048C69.4833 51.8811 69.0795 51.7692 68.6611 51.7692C67.9703 51.7692 67.4205 52.027 67.0118 52.5426C66.6032 53.0485 66.3988 53.7003 66.3988 54.4981C66.3988 55.2958 66.6032 55.9476 67.0118 56.4535C67.4205 56.9594 67.9703 57.2123 68.6611 57.2123C69.0892 57.2123 69.4979 57.1053 69.8871 56.8913C70.2763 56.6772 70.5731 56.4146 70.7774 56.1032V52.9074ZM68.3546 49.9014L70.5147 47.8H71.6531L69.1865 49.9014H68.3546Z" fill="#01579B"></path><path d="M57.4631 50.9666H58.6453L60.9952 56.7453L63.3304 50.9666H64.5272L61.5936 58.0149H60.3968L57.4631 50.9666Z" fill="#01579B"></path><path d="M53.2412 58.19C52.5406 58.19 51.9276 58.0246 51.4022 57.6938C50.8768 57.3631 50.4681 56.9156 50.1762 56.3513C49.894 55.7871 49.7529 55.1644 49.7529 54.4835C49.7529 53.8025 49.894 53.1798 50.1762 52.6156C50.4681 52.0513 50.8768 51.6087 51.4022 51.2877C51.9276 50.9569 52.5406 50.7915 53.2412 50.7915C53.9418 50.7915 54.5548 50.9569 55.0802 51.2877C55.6056 51.6087 56.0094 52.0513 56.2916 52.6156C56.5835 53.1798 56.7295 53.8025 56.7295 54.4835C56.7295 55.1644 56.5835 55.7871 56.2916 56.3513C56.0094 56.9156 55.6056 57.3631 55.0802 57.6938C54.5548 58.0246 53.9418 58.19 53.2412 58.19ZM53.2412 57.2123C53.7277 57.2123 54.1461 57.0907 54.4964 56.8475C54.8467 56.5945 55.1143 56.2589 55.2991 55.8406C55.484 55.4223 55.5765 54.9699 55.5765 54.4835C55.5765 53.997 55.484 53.5495 55.2991 53.1409C55.1143 52.7226 54.8467 52.3918 54.4964 52.1486C54.1461 51.8957 53.7277 51.7692 53.2412 51.7692C52.7547 51.7692 52.3314 51.8957 51.9714 52.1486C51.6211 52.3918 51.3536 52.7226 51.1687 53.1409C50.9838 53.5495 50.8914 53.997 50.8914 54.4835C50.8914 54.9699 50.9838 55.4223 51.1687 55.8406C51.3536 56.2589 51.6211 56.5945 51.9714 56.8475C52.3314 57.0907 52.7547 57.2123 53.2412 57.2123Z" fill="#01579B"></path><path d="M47.652 58.19C47.1363 58.19 46.7471 58.0489 46.4844 57.7668C46.2217 57.4847 46.0903 57.0761 46.0903 56.541V51.9297H44.9227V50.9666H46.0903V49.0404H47.185V50.9666H48.6153V51.9297H47.185V56.3075C47.185 56.5799 47.2434 56.7988 47.3601 56.9642C47.4866 57.1296 47.6666 57.2123 47.9002 57.2123C48.0461 57.2123 48.1872 57.188 48.3234 57.1393C48.4596 57.081 48.5667 57.008 48.6445 56.9204L48.9656 57.7376C48.6445 58.0392 48.2067 58.19 47.652 58.19Z" fill="#01579B"></path><path d="M40.6365 54.8483L39.4689 56.0011V58.0149H38.3742V48.2816H39.4689V54.7169L43.1761 50.9666H44.5626L41.4392 54.1624L44.5772 58.0149H43.1761L40.6365 54.8483Z" fill="#01579B"></path><path d="M35.0935 57.0226C34.8016 57.3534 34.4318 57.6306 33.9842 57.8544C33.5464 58.0781 33.0793 58.19 32.5831 58.19C31.0847 58.19 30.3354 57.4409 30.3354 55.9427V50.9666H31.4301V55.6071C31.4301 56.1908 31.5614 56.6043 31.8242 56.8475C32.0966 57.0907 32.4907 57.2123 33.0064 57.2123C33.415 57.2123 33.8091 57.1101 34.1886 56.9058C34.5778 56.7016 34.8794 56.4486 35.0935 56.147V50.9666H36.1881V58.0149H35.0935V57.0226Z" fill="#01579B"></path><path d="M27.0487 56.9642C26.7762 57.3339 26.4308 57.6306 26.0124 57.8544C25.594 58.0781 25.1464 58.19 24.6696 58.19C24.0566 58.19 23.5117 58.0441 23.035 57.7522C22.5679 57.4506 22.1982 57.0226 21.9257 56.4681C21.663 55.9038 21.5316 55.2471 21.5316 54.4981C21.5316 53.7587 21.663 53.1117 21.9257 52.5572C22.1884 51.993 22.5582 51.5601 23.035 51.2585C23.5117 50.9472 24.0566 50.7915 24.6696 50.7915C25.1367 50.7915 25.5745 50.9034 25.9832 51.1271C26.4016 51.3412 26.7567 51.6427 27.0487 52.0319V48.2816H28.1433V58.0149H27.0487V56.9642ZM27.0487 52.9074C26.8443 52.5864 26.5427 52.3189 26.1437 52.1048C25.7545 51.8811 25.3507 51.7692 24.9323 51.7692C24.2415 51.7692 23.6917 52.027 23.2831 52.5426C22.8744 53.0485 22.6701 53.7003 22.6701 54.4981C22.6701 55.2958 22.8744 55.9476 23.2831 56.4535C23.6917 56.9594 24.2415 57.2123 24.9323 57.2123C25.3605 57.2123 25.7691 57.1053 26.1583 56.8913C26.5476 56.6772 26.8443 56.4146 27.0487 56.1032V52.9074Z" fill="#01579B"></path><path d="M16.6676 58.19C15.967 58.19 15.354 58.0246 14.8285 57.6938C14.3031 57.3631 13.8945 56.9156 13.6025 56.3513C13.3204 55.7871 13.1793 55.1644 13.1793 54.4835C13.1793 53.8025 13.3204 53.1798 13.6025 52.6156C13.8945 52.0513 14.3031 51.6087 14.8285 51.2877C15.354 50.9569 15.967 50.7915 16.6676 50.7915C17.3681 50.7915 17.9811 50.9569 18.5066 51.2877C19.032 51.6087 19.4358 52.0513 19.718 52.6156C20.0099 53.1798 20.1558 53.8025 20.1558 54.4835C20.1558 55.1644 20.0099 55.7871 19.718 56.3513C19.4358 56.9156 19.032 57.3631 18.5066 57.6938C17.9811 58.0246 17.3681 58.19 16.6676 58.19ZM16.6676 57.2123C17.1541 57.2123 17.5725 57.0907 17.9227 56.8475C18.273 56.5945 18.5406 56.2589 18.7255 55.8406C18.9104 55.4223 19.0028 54.9699 19.0028 54.4835C19.0028 53.997 18.9104 53.5495 18.7255 53.1409C18.5406 52.7226 18.273 52.3918 17.9227 52.1486C17.5725 51.8957 17.1541 51.7692 16.6676 51.7692C16.181 51.7692 15.7578 51.8957 15.3978 52.1486C15.0475 52.3918 14.7799 52.7226 14.595 53.1409C14.4102 53.5495 14.3177 53.997 14.3177 54.4835C14.3177 54.9699 14.4102 55.4223 14.595 55.8406C14.7799 56.2589 15.0475 56.5945 15.3978 56.8475C15.7578 57.0907 16.181 57.2123 16.6676 57.2123Z" fill="#01579B"></path><path d="M8.77037 50.9666H9.86501V52.1048C10.1667 51.7157 10.5169 51.4044 10.9159 51.1709C11.3245 50.9374 11.7575 50.8207 12.2149 50.8207V51.9443C12.0786 51.9151 11.9327 51.9005 11.777 51.9005C11.4462 51.9005 11.0862 52.0173 10.6969 52.2508C10.3077 52.4843 10.0304 52.7421 9.86501 53.0242V58.0149H8.77037V50.9666Z" fill="#01579B"></path><path d="M0.248001 48.2816H4.15953C4.79199 48.2816 5.33688 48.4129 5.7942 48.6756C6.26125 48.9382 6.61153 49.2933 6.84506 49.7408C7.08831 50.1883 7.20994 50.6796 7.20994 51.2147C7.20994 51.7498 7.08831 52.241 6.84506 52.6886C6.6018 53.1361 6.24665 53.4912 5.7796 53.7538C5.32229 54.0165 4.78226 54.1478 4.15953 54.1478H1.45941V58.0149H0.248001V48.2816ZM5.95475 51.2147C5.95475 50.6699 5.77474 50.2273 5.41472 49.8868C5.05471 49.5365 4.58766 49.3614 4.01358 49.3614H1.45941V53.068H4.01358C4.58766 53.068 5.05471 52.8977 5.41472 52.5572C5.77474 52.207 5.95475 51.7595 5.95475 51.2147Z" fill="#01579B"></path><defs><linearGradient id="paint0_linear_1_2483" x1="16.7012" y1="32.7694" x2="16.7012" y2="5.24171" gradientUnits="userSpaceOnUse"><stop stop-color="white"></stop><stop offset="1" stop-color="#CCCCCC"></stop></linearGradient><linearGradient id="paint1_linear_1_2483" x1="17.2392" y1="28.9582" x2="17.2392" y2="9.06411" gradientUnits="userSpaceOnUse"><stop stop-color="#CCCCCC"></stop><stop offset="1" stop-color="white"></stop></linearGradient></defs></svg> 